<svg xmlns="http://www.w3.org/2000/svg" width="18.474" height="14.148" viewBox="0 0 18.474 14.148">
  <g id="Group_537" data-name="Group 537" transform="translate(0 0)" style="mix-blend-mode: difference;">
    <path id="Path_45" data-name="Path 45" d="M118.355,15.893H105.927a3.029,3.029,0,0,1-3.023-3.026v-8.1a3.029,3.029,0,0,1,3.023-3.026h12.428a3.029,3.029,0,0,1,3.023,3.026v8.1a3.029,3.029,0,0,1-3.023,3.026M105.927,3.565a1.208,1.208,0,0,0-1.207,1.207v8.1a1.208,1.208,0,0,0,1.207,1.207h12.428a1.21,1.21,0,0,0,1.209-1.207v-8.1a1.21,1.21,0,0,0-1.209-1.207Z" transform="translate(-102.904 -1.746)"/>
    <path id="Path_46" data-name="Path 46" d="M111.917,10.1l-8.869-6.567,1.077-1.458,7.791,5.764,7.791-5.764,1.077,1.458Z" transform="translate(-102.681 -1.239)"/>
  </g>
</svg>
