<svg xmlns="http://www.w3.org/2000/svg" width="18.495" height="18.526" viewBox="0 0 18.495 18.526">
  <g id="Group_536" data-name="Group 536" style="mix-blend-mode: difference;isolation: isolate">
    <path id="Path_79" data-name="Path 79" d="M117.145,14.675c-.592-.1-1.2-.107-1.8-.158-.081-.008-.165-.02-.249-.03h-5.932c-.391.025-.78.043-1.171.074a5.47,5.47,0,0,0-3.267,1.227,4.675,4.675,0,0,0-1.623,2.939,19.491,19.491,0,0,0-.188,2.553q-.038,2.477,0,4.954a17.45,17.45,0,0,0,.18,2.5,4.759,4.759,0,0,0,3.882,4.054,13.3,13.3,0,0,0,2.766.213q2.416.023,4.829,0a13.115,13.115,0,0,0,2.749-.208,4.782,4.782,0,0,0,3.879-3.877c.089-.384.1-.785.155-1.179.01-.076.023-.152.036-.229V19.84c-.036-.29-.069-.582-.109-.874a4.841,4.841,0,0,0-4.141-4.291m2.581,12.293a6.791,6.791,0,0,1-.216,1.877,3.123,3.123,0,0,1-2.556,2.317,15.822,15.822,0,0,1-2.774.17c-.668.018-1.339.005-2.007.005v.03c-1.331-.03-2.665-.048-4-.1a3.933,3.933,0,0,1-2.007-.572,3.074,3.074,0,0,1-1.41-2.213,12.191,12.191,0,0,1-.145-1.745q-.027-2.984,0-5.967a8.116,8.116,0,0,1,.2-2.009,3.115,3.115,0,0,1,2.675-2.426,17.741,17.741,0,0,1,3.028-.152c1.435,0,2.871-.01,4.306.01a9.753,9.753,0,0,1,2.35.208,3.108,3.108,0,0,1,2.416,2.6,12.4,12.4,0,0,1,.152,2.375q.008,2.8-.015,5.589" transform="translate(-102.899 -14.487)"/>
    <path id="Path_80" data-name="Path 80" d="M109.443,16.257a4.766,4.766,0,1,0,4.763,4.763,4.782,4.782,0,0,0-4.763-4.763m.013,7.842a3.079,3.079,0,1,1,3.064-3.089,3.066,3.066,0,0,1-3.064,3.089" transform="translate(-100.169 -11.761)"/>
    <path id="Path_81" data-name="Path 81" d="M109.177,15.747a1.111,1.111,0,1,0,1.105,1.123,1.118,1.118,0,0,0-1.105-1.123" transform="translate(-94.952 -12.546)"/>
  </g>
</svg>
