<svg xmlns="http://www.w3.org/2000/svg" width="18.493" height="18.489" viewBox="0 0 18.493 18.489">
  <g id="Group_538" data-name="Group 538" transform="translate(0 0)" style="mix-blend-mode: difference;isolation: isolate">
    <path id="Path_101" data-name="Path 101" d="M6.264,28.368c0-2,0-4,0-6a5.852,5.852,0,0,1,.069-.92,2.143,2.143,0,0,1,2.5-1.979,1.7,1.7,0,0,1,1.443.935,3.568,3.568,0,0,1,.361,1.7q0,3.14,0,6.277v.282h3.826v-.285q0-3.692,0-7.382A9.915,9.915,0,0,0,14.414,20a4.714,4.714,0,0,0-1-2.586,4.077,4.077,0,0,0-2.967-1.433A4.341,4.341,0,0,0,6.4,17.767a1.115,1.115,0,0,0-.069.135l-.076-.046v-1.5H2.616V28.668H6.264Z" transform="translate(4.028 -10.191)"/>
    <path id="Path_102" data-name="Path 102" d="M.148,16.341Q.148,22.27.143,28.2c0,.193.056.246.246.246,1.115-.008,2.23-.005,3.346-.005.074,0,.15-.008.239-.013V16.12H.158c0,.086-.01.152-.01.221" transform="translate(0.218 -9.956)"/>
    <path id="Path_103" data-name="Path 103" d="M2.318,18.259A2.285,2.285,0,1,0,0,16a2.284,2.284,0,0,0,2.317,2.256" transform="translate(-0.001 -13.694)"/>
  </g>
</svg>
