<svg xmlns="http://www.w3.org/2000/svg" xmlns:xlink="http://www.w3.org/1999/xlink" width="15.079" height="20" viewBox="0 0 15.079 20">
  <defs>
    <clipPath id="clip-path">
      <rect id="Rectangle_17" data-name="Rectangle 17" width="15.079" height="20"/>
    </clipPath>
  </defs>
  <g id="Group_501" data-name="Group 501" clip-path="url(#clip-path)">
    <path id="Path_449" data-name="Path 449" d="M10.66,20a6.533,6.533,0,0,1-4.232-1.643A22.147,22.147,0,0,1,.9,10.086,9.426,9.426,0,0,1,.048,5.265,6.474,6.474,0,0,1,2.341,1.094L3.058.521A2.428,2.428,0,0,1,4.944.065a1.31,1.31,0,0,1,.784.687c.54,1.064,1.285,3.042,1.683,4.125A1.532,1.532,0,0,1,6.9,6.622l-1.331.954c-.2.109-.226.2-.223.226a14.68,14.68,0,0,0,3.48,5.973A1.093,1.093,0,0,0,9.078,14l.182-.189L9.245,13.8a2.615,2.615,0,0,1,1.874-1.11h.007a2.356,2.356,0,0,1,1.725,1.01c.6.712,1.138,1.476,1.676,2.239l.207.293a1.7,1.7,0,0,1-.486,2.486,2.568,2.568,0,0,1-.738.412l-.433.272a4.953,4.953,0,0,1-2.416.6M4.31,1.825c-.109.049-.226.109-.3.149l-.54.449A4.69,4.69,0,0,0,1.785,5.456a7.732,7.732,0,0,0,.726,3.95,20.453,20.453,0,0,0,5.065,7.637,4.264,4.264,0,0,0,4.639.838l.584-.338a1.454,1.454,0,0,0,.389-.216l.119-.086-.209-.3c-.505-.722-1.015-1.446-1.583-2.121a1.385,1.385,0,0,0-.419-.389,2.85,2.85,0,0,0-.528.5l-.5.37c-.484.452-1.418.826-2.512-.335A16.51,16.51,0,0,1,3.68,8.308a1.92,1.92,0,0,1,.994-2.225l1.043-.75C5.414,4.5,4.79,2.847,4.31,1.825" transform="translate(0.001 -0.001)"/>
  </g>
</svg>
