<svg xmlns="http://www.w3.org/2000/svg" width="156.322" height="155" viewBox="0 0 156.322 155">
  <g id="Group_999" data-name="Group 999" transform="translate(-1039.577 -6032.002)">
    <path id="Path_582" data-name="Path 582" d="M85.36,2.11l9.6,6.172a13.3,13.3,0,0,0,7.2,2.116H113.58a13.318,13.318,0,0,1,12.111,7.783l4.745,10.385a13.319,13.319,0,0,0,4.912,5.671l9.6,6.172a13.318,13.318,0,0,1,5.983,13.1l-1.624,11.3a13.289,13.289,0,0,0,1.067,7.427l4.741,10.385a13.319,13.319,0,0,1-2.046,14.253l-7.48,8.625a13.357,13.357,0,0,0-3.117,6.826l-1.624,11.3a13.307,13.307,0,0,1-9.429,10.881l-10.952,3.217a13.319,13.319,0,0,0-6.312,4.056l-7.48,8.63a13.312,13.312,0,0,1-13.814,4.056l-10.952-3.217a13.314,13.314,0,0,0-7.506,0L63.457,154.46A13.312,13.312,0,0,1,49.643,150.4l-7.48-8.63a13.34,13.34,0,0,0-6.312-4.056L24.9,134.5a13.307,13.307,0,0,1-9.429-10.881l-1.624-11.3a13.358,13.358,0,0,0-3.117-6.826L3.251,96.87A13.319,13.319,0,0,1,1.205,82.618L5.946,72.232a13.289,13.289,0,0,0,1.067-7.427l-1.624-11.3a13.318,13.318,0,0,1,5.983-13.1l9.6-6.172a13.348,13.348,0,0,0,4.912-5.671L30.633,18.18A13.318,13.318,0,0,1,42.743,10.4H54.16a13.3,13.3,0,0,0,7.2-2.116l9.6-6.172a13.334,13.334,0,0,1,14.4,0" transform="translate(1039.576 6032.002)" fill="#ffc43b"/>
    <path id="Path_583" data-name="Path 583" d="M29.951,32.737A8.729,8.729,0,0,1,32.093,37.2a8.552,8.552,0,0,1-.536,4.917,9.489,9.489,0,0,1-3.174,3.956A11.94,11.94,0,0,1,23.256,48.2L12.262,50.149a3.9,3.9,0,0,1-4.513-3.165L3.42,22.419a3.9,3.9,0,0,1,3.161-4.513l10.712-1.888a12.15,12.15,0,0,1,5.255.167,8.855,8.855,0,0,1,4.065,2.322,7.434,7.434,0,0,1,2.033,4.013,7.769,7.769,0,0,1-.4,4.2,8.54,8.54,0,0,1-2.476,3.477,8.687,8.687,0,0,1,4.175,2.542M19.3,23.6a3.15,3.15,0,0,0-2.349-.4l-4.465.79.988,5.62,4.469-.79a3.127,3.127,0,0,0,2.072-1.172A2.94,2.94,0,0,0,19.3,23.6m3.359,16.363a3.057,3.057,0,0,0-.746-4.241,3.235,3.235,0,0,0-2.45-.417l-4.834.852,1.041,5.892,4.834-.852a3.259,3.259,0,0,0,2.156-1.234" transform="translate(1050.967 6085.587)" fill="#fff"/>
    <path id="Path_584" data-name="Path 584" d="M21.752,47.99a16.287,16.287,0,0,1-7.393-4.913,17.066,17.066,0,0,1-3.82-8.324,17.048,17.048,0,0,1,.742-9.132,16.321,16.321,0,0,1,5.268-7.147,19.243,19.243,0,0,1,8.776-3.8,19.338,19.338,0,0,1,9.523.549A16,16,0,0,1,42.2,20.147,17.282,17.282,0,0,1,46,28.5a17.3,17.3,0,0,1-.711,9.149,15.972,15.972,0,0,1-5.224,7.139,19.275,19.275,0,0,1-8.759,3.78,19.3,19.3,0,0,1-9.549-.575m12.223-9.584a7.892,7.892,0,0,0,2.472-3.618,9.911,9.911,0,0,0-1.576-8.934A7.89,7.89,0,0,0,31.31,23.3a8.7,8.7,0,0,0-4.522-.342,8.791,8.791,0,0,0-4.18,1.875,8.084,8.084,0,0,0-2.494,3.622,9.718,9.718,0,0,0,1.572,8.934,8.06,8.06,0,0,0,3.587,2.551,8.8,8.8,0,0,0,4.566.329,8.673,8.673,0,0,0,4.136-1.866" transform="translate(1074.275 6080.556)" fill="#fff"/>
    <path id="Path_585" data-name="Path 585" d="M43.683,38.972h0a4.142,4.142,0,0,1-3.359,4.794L27.79,45.974a3.888,3.888,0,0,1-4.509-3.157L18.988,18.491A4.143,4.143,0,0,1,22.342,13.7l.834-.145a4.136,4.136,0,0,1,4.79,3.359L31.5,36.917l7.389-1.3a4.143,4.143,0,0,1,4.794,3.359" transform="translate(1103.712 6077.717)" fill="#fff"/>
    <path id="Path_586" data-name="Path 586" d="M45.872,12.976a15.063,15.063,0,0,1,6.9,4.671,16.551,16.551,0,0,1,3.587,7.938,16.7,16.7,0,0,1-.65,8.71,15.166,15.166,0,0,1-4.9,6.8,17.962,17.962,0,0,1-8.223,3.587L33.391,46.3a3.9,3.9,0,0,1-4.513-3.161L24.544,18.578a3.893,3.893,0,0,1,3.161-4.509l9.2-1.624a18.05,18.05,0,0,1,8.969.531m.25,20.4a8.011,8.011,0,0,0,1.163-6.186,7.631,7.631,0,0,0-9.36-6.52l-3.732.659L37,37.259l3.727-.654a7.9,7.9,0,0,0,5.391-3.231" transform="translate(1122.554 6073.082)" fill="#fff"/>
  </g>
</svg>
