<svg xmlns="http://www.w3.org/2000/svg" width="156.322" height="155" viewBox="0 0 156.322 155">
  <g id="Group_1003" data-name="Group 1003" transform="translate(-1039.577 -5795.002)">
    <path id="Path_567" data-name="Path 567" d="M85.36,2.11l9.6,6.172a13.3,13.3,0,0,0,7.2,2.116H113.58a13.318,13.318,0,0,1,12.111,7.783l4.745,10.385a13.319,13.319,0,0,0,4.912,5.671l9.6,6.172a13.318,13.318,0,0,1,5.983,13.1l-1.624,11.3a13.289,13.289,0,0,0,1.067,7.427l4.741,10.385a13.31,13.31,0,0,1-2.046,14.248l-7.48,8.63a13.358,13.358,0,0,0-3.117,6.826l-1.624,11.3a13.307,13.307,0,0,1-9.429,10.881l-10.952,3.217a13.319,13.319,0,0,0-6.312,4.056l-7.48,8.63a13.312,13.312,0,0,1-13.814,4.056l-10.952-3.217a13.314,13.314,0,0,0-7.506,0L63.457,154.46A13.312,13.312,0,0,1,49.643,150.4l-7.48-8.63a13.34,13.34,0,0,0-6.312-4.056L24.9,134.5a13.307,13.307,0,0,1-9.429-10.881l-1.624-11.3a13.358,13.358,0,0,0-3.117-6.826l-7.48-8.63A13.31,13.31,0,0,1,1.205,82.618L5.946,72.232a13.289,13.289,0,0,0,1.067-7.427l-1.624-11.3a13.318,13.318,0,0,1,5.983-13.1l9.6-6.172a13.348,13.348,0,0,0,4.912-5.671L30.632,18.18A13.318,13.318,0,0,1,42.743,10.4H54.16a13.3,13.3,0,0,0,7.2-2.116l9.6-6.172a13.334,13.334,0,0,1,14.4,0" transform="translate(1039.576 5795.002)" fill="#ffc43b"/>
    <path id="Path_568" data-name="Path 568" d="M10.889,42.25C1.684,39.2-.6,26.084,6.978,20.066c5.355-4.376,13.2-3.929,17.654.737a3.271,3.271,0,0,1-1.839,5.447l-.268.044A3.225,3.225,0,0,1,19.6,25.25c-4.025-4.337-11.29-.6-10,5.829.957,6.553,9.556,7.335,11.452,1.69a3.227,3.227,0,0,1,2.528-2.085l.2-.035a3.278,3.278,0,0,1,3.613,4.433,13.115,13.115,0,0,1-16.5,7.168" transform="translate(1047.806 5852.721)" fill="#fff"/>
    <path id="Path_569" data-name="Path 569" d="M34.34,34.11l-8.612,1.519-.29,1.844A3.327,3.327,0,1,1,18.889,36.3l3.634-17.948a4.884,4.884,0,0,1,8.933-1.607l9.7,15.6a3.326,3.326,0,0,1-2.247,5.035l-.171.031a3.335,3.335,0,0,1-3.494-1.672ZM27.783,22.087l-1.343,8.006,5.346-.939Z" transform="translate(1103.369 5843.948)" fill="#fff"/>
    <path id="Path_570" data-name="Path 570" d="M20.052,33.455l-2.4.426.737,4.161a3.32,3.32,0,0,1-2.7,3.845l-.162.031a3.318,3.318,0,0,1-3.845-2.7l-3.2-18.146a2.937,2.937,0,0,1,2.383-3.406L18.5,16.327a9.879,9.879,0,0,1,4.846.272A8.263,8.263,0,0,1,27.1,19.088a8.742,8.742,0,0,1,1.949,4.258A7.871,7.871,0,0,1,26.4,30.869L29.305,34.5a3.32,3.32,0,1,1-5.21,4.117Zm-3.393-5.237,3.055-.54a3.09,3.09,0,0,0,2.041-1.111,2.765,2.765,0,0,0-.672-3.823,3.108,3.108,0,0,0-2.3-.342l-3.055.536Z" transform="translate(1068.197 5849.739)" fill="#fff"/>
    <path id="Path_571" data-name="Path 571" d="M32.912,35.909l.057.312a2.783,2.783,0,0,1-2.261,3.226l-10.2,1.8a2.937,2.937,0,0,1-3.4-2.379L13.84,20.339a2.935,2.935,0,0,1,2.379-3.4l9.925-1.751a2.789,2.789,0,0,1,3.226,2.265l.057.307a2.788,2.788,0,0,1-2.261,3.231l-6.15,1.08.632,3.582,5.245-.926a2.786,2.786,0,1,1,.966,5.487l-5.241.926.641,3.643,6.426-1.132a2.786,2.786,0,0,1,3.226,2.261" transform="translate(1086.327 5846.332)" fill="#fff"/>
    <path id="Path_572" data-name="Path 572" d="M47.747,33.295l.057.312a2.787,2.787,0,0,1-2.261,3.226l-10.2,1.8a2.937,2.937,0,0,1-3.4-2.383L28.675,17.725a2.93,2.93,0,0,1,2.383-3.4l9.92-1.751A2.786,2.786,0,0,1,44.2,14.833l.057.312A2.784,2.784,0,0,1,42,18.371l-6.15,1.084.632,3.577,5.245-.922a2.786,2.786,0,0,1,.966,5.487l-5.241.922.641,3.648,6.426-1.132a2.786,2.786,0,0,1,3.226,2.261" transform="translate(1136.61 5837.468)" fill="#fff"/>
    <path id="Path_573" data-name="Path 573" d="M40.713,19.409l-3.613.636,2.691,15.249A3.066,3.066,0,0,1,37.3,38.845l-.663.119a3.066,3.066,0,0,1-3.551-2.489L30.4,21.226l-3.577.632a3.069,3.069,0,0,1-1.067-6.044l13.893-2.449a3.069,3.069,0,1,1,1.067,6.044" transform="translate(1118.281 5840.14)" fill="#fff"/>
  </g>
</svg>
