<svg xmlns="http://www.w3.org/2000/svg" width="156.322" height="155" viewBox="0 0 156.322 155">
  <g id="Group_1004" data-name="Group 1004" transform="translate(-1039.577 -5895.002)">
    <path id="Path_574" data-name="Path 574" d="M85.36,2.11l9.6,6.172a13.3,13.3,0,0,0,7.2,2.116H113.58a13.318,13.318,0,0,1,12.111,7.783l4.745,10.385a13.319,13.319,0,0,0,4.912,5.671l9.6,6.172a13.318,13.318,0,0,1,5.983,13.1l-1.624,11.3a13.289,13.289,0,0,0,1.067,7.427l4.741,10.385a13.319,13.319,0,0,1-2.046,14.253l-7.48,8.625a13.358,13.358,0,0,0-3.117,6.826l-1.624,11.3a13.307,13.307,0,0,1-9.429,10.881l-10.952,3.217a13.319,13.319,0,0,0-6.312,4.056l-7.48,8.63a13.312,13.312,0,0,1-13.814,4.056l-10.952-3.217a13.314,13.314,0,0,0-7.506,0L63.457,154.46A13.312,13.312,0,0,1,49.643,150.4l-7.48-8.63a13.34,13.34,0,0,0-6.312-4.056L24.9,134.5a13.307,13.307,0,0,1-9.429-10.881l-1.624-11.3a13.358,13.358,0,0,0-3.117-6.826L3.251,96.87A13.319,13.319,0,0,1,1.205,82.618L5.946,72.232a13.289,13.289,0,0,0,1.067-7.427l-1.624-11.3a13.318,13.318,0,0,1,5.983-13.1l9.6-6.172a13.348,13.348,0,0,0,4.912-5.671L30.632,18.18A13.318,13.318,0,0,1,42.743,10.4H54.16a13.3,13.3,0,0,0,7.2-2.116l9.6-6.172a13.334,13.334,0,0,1,14.4,0" transform="translate(1039.576 5895.002)" fill="#ffc43b"/>
    <path id="Path_575" data-name="Path 575" d="M9.631,38.091C2.121,35.6.256,24.9,6.44,19.985a10.746,10.746,0,0,1,14.406.6,2.669,2.669,0,0,1-1.5,4.447l-.219.039a2.65,2.65,0,0,1-2.388-.856c-3.283-3.542-9.213-.492-8.164,4.758.781,5.346,7.8,5.987,9.345,1.378a2.645,2.645,0,0,1,2.067-1.7l.158-.026A2.676,2.676,0,0,1,23.1,32.24,10.706,10.706,0,0,1,9.631,38.091" transform="translate(1048.818 5954.338)" fill="#fff"/>
    <path id="Path_576" data-name="Path 576" d="M38.291,20.878c-1.607-.224-3.406-.026-3.718-1.361a1.141,1.141,0,0,1,.391-1.106,3.188,3.188,0,0,1,2.923-.5,1.688,1.688,0,0,1,.86.874,2.568,2.568,0,0,0,2.743,1.484l.255-.044a2.593,2.593,0,0,0,1.782-3.784,5.279,5.279,0,0,0-2.212-2.524c-2.774-1.892-9.029-.746-11.075,1.835-1.927,1.923-1.633,6.255.334,8.037,1.83,1.62,3.538,1.549,6.066,1.822a13.861,13.861,0,0,1,2.77.36A1.433,1.433,0,0,1,40,28.41a2.866,2.866,0,0,1-3.182.518,2.213,2.213,0,0,1-.926-.974A2.854,2.854,0,0,0,30.8,30.53a5.9,5.9,0,0,0,2.405,2.6c3.038,1.958,9.314.856,11.615-1.931a5.922,5.922,0,0,0,1.326-5.245c-.658-4.148-4.179-4.842-7.853-5.074" transform="translate(1137.66 5938.986)" fill="#fff"/>
    <path id="Path_577" data-name="Path 577" d="M21.87,30.074l-1.953.347.6,3.4a2.713,2.713,0,0,1-2.2,3.138l-.132.022a2.709,2.709,0,0,1-3.138-2.2L12.433,19.97a2.4,2.4,0,0,1,1.945-2.779l6.229-1.1a8.044,8.044,0,0,1,3.955.224,6.69,6.69,0,0,1,3.059,2.032,7.086,7.086,0,0,1,1.593,3.472,6.475,6.475,0,0,1-.259,3.406,6.56,6.56,0,0,1-1.9,2.735L29.42,30.93a2.708,2.708,0,1,1-4.249,3.358ZM19.1,25.8l2.493-.439a2.562,2.562,0,0,0,1.668-.909,2.254,2.254,0,0,0-.549-3.117,2.535,2.535,0,0,0-1.879-.285l-2.493.439Z" transform="translate(1081.588 5949.06)" fill="#fff"/>
    <path id="Path_578" data-name="Path 578" d="M14.783,37.772A7.754,7.754,0,0,1,11.2,35.423,8.268,8.268,0,0,1,9.34,31.35L7.672,21.891a2.739,2.739,0,0,1,2.221-3.174l.189-.035a2.741,2.741,0,0,1,3.174,2.225l1.655,9.376a3.2,3.2,0,0,0,1.255,2.16,3.063,3.063,0,0,0,2.392.47,3.018,3.018,0,0,0,2.059-1.255,3.192,3.192,0,0,0,.443-2.458L19.4,19.823a2.746,2.746,0,0,1,2.225-3.178l.184-.031a2.743,2.743,0,0,1,3.178,2.221L26.66,28.3a8.288,8.288,0,0,1-.356,4.46,7.741,7.741,0,0,1-2.563,3.433,9.622,9.622,0,0,1-4.284,1.822,9.661,9.661,0,0,1-4.675-.241" transform="translate(1065.434 5951.172)" fill="#fff"/>
    <path id="Path_579" data-name="Path 579" d="M19.1,15.479h0a2.81,2.81,0,0,1,3.253,2.278l2.524,14.314a2.808,2.808,0,0,1-5.531.974L16.818,18.732A2.808,2.808,0,0,1,19.1,15.479" transform="translate(1096.433 5947.321)" fill="#fff"/>
    <path id="Path_580" data-name="Path 580" d="M26.017,35.34a10.007,10.007,0,0,1-4.552-3.024,10.5,10.5,0,0,1-2.353-5.123,10.558,10.558,0,0,1,.457-5.623,10.045,10.045,0,0,1,3.244-4.4,11.866,11.866,0,0,1,5.4-2.34,11.853,11.853,0,0,1,5.864.338A9.818,9.818,0,0,1,38.6,18.2a10.6,10.6,0,0,1,2.34,5.14,10.622,10.622,0,0,1-.439,5.627,9.847,9.847,0,0,1-3.213,4.4,11.864,11.864,0,0,1-5.395,2.322,11.808,11.808,0,0,1-5.877-.351m7.524-5.9a4.857,4.857,0,0,0,1.523-2.225,6.113,6.113,0,0,0-.97-5.5,4.857,4.857,0,0,0-2.19-1.571,5.32,5.32,0,0,0-2.787-.211,5.419,5.419,0,0,0-2.572,1.154,4.964,4.964,0,0,0-1.536,2.23,5.971,5.971,0,0,0,.97,5.5,4.933,4.933,0,0,0,2.2,1.567,5.7,5.7,0,0,0,5.36-.944" transform="translate(1103.734 5944.549)" fill="#fff"/>
    <path id="Path_581" data-name="Path 581" d="M31.373,34.835a7.754,7.754,0,0,1-3.586-2.348,8.268,8.268,0,0,1-1.857-4.073l-1.65-9.367a2.835,2.835,0,1,1,5.583-.983L31.5,27.346a3.2,3.2,0,0,0,1.255,2.16,3.063,3.063,0,0,0,2.392.47,3.018,3.018,0,0,0,2.059-1.255,3.191,3.191,0,0,0,.443-2.458l-1.637-9.284a2.835,2.835,0,1,1,5.583-.988l1.655,9.371a8.288,8.288,0,0,1-.356,4.46,7.741,7.741,0,0,1-2.563,3.433,10.379,10.379,0,0,1-8.959,1.58" transform="translate(1121.721 5941.261)" fill="#fff"/>
  </g>
</svg>
