<svg xmlns="http://www.w3.org/2000/svg" width="156.323" height="155" viewBox="0 0 156.323 155">
  <g id="Group_1005" data-name="Group 1005" transform="translate(-1039.577 -5669.002)">
    <path id="Path_561" data-name="Path 561" d="M85.36,2.11l9.6,6.172a13.3,13.3,0,0,0,7.2,2.116H113.58a13.318,13.318,0,0,1,12.111,7.783l4.745,10.385a13.319,13.319,0,0,0,4.912,5.671l9.6,6.172a13.318,13.318,0,0,1,5.983,13.1l-1.624,11.3a13.289,13.289,0,0,0,1.067,7.427l4.741,10.385a13.319,13.319,0,0,1-2.046,14.253l-7.48,8.625a13.357,13.357,0,0,0-3.117,6.826l-1.624,11.3a13.307,13.307,0,0,1-9.429,10.881l-10.952,3.217a13.319,13.319,0,0,0-6.312,4.056l-7.48,8.63a13.312,13.312,0,0,1-13.814,4.056l-10.952-3.217a13.314,13.314,0,0,0-7.506,0L63.457,154.46A13.312,13.312,0,0,1,49.643,150.4l-7.48-8.63a13.34,13.34,0,0,0-6.312-4.056L24.9,134.5a13.307,13.307,0,0,1-9.429-10.881l-1.624-11.3a13.358,13.358,0,0,0-3.117-6.826L3.251,96.87A13.319,13.319,0,0,1,1.205,82.618L5.946,72.232a13.289,13.289,0,0,0,1.067-7.427l-1.624-11.3a13.318,13.318,0,0,1,5.983-13.1l9.6-6.172a13.348,13.348,0,0,0,4.912-5.671L30.633,18.18A13.318,13.318,0,0,1,42.743,10.4H54.16a13.3,13.3,0,0,0,7.2-2.116l9.6-6.172a13.334,13.334,0,0,1,14.4,0" transform="translate(1039.576 5669.002)" fill="#ffc43b"/>
    <path id="Path_562" data-name="Path 562" d="M30.169,35.412l-8.952,1.579-.3,1.918A3.459,3.459,0,1,1,14.11,37.69l3.775-18.65a5.074,5.074,0,0,1,9.282-1.675l10.084,16.22a3.458,3.458,0,0,1-2.334,5.233l-.178.03a3.467,3.467,0,0,1-3.632-1.736ZM23.352,22.92l-1.4,8.323,5.558-.981Z" transform="translate(1087.286 5719.905)" fill="#fff"/>
    <path id="Path_563" data-name="Path 563" d="M31.722,31.84l-2.491.438L30,36.6a3.453,3.453,0,0,1-2.8,4l-.174.03a3.448,3.448,0,0,1-3.992-2.8L19.7,18.97a3.057,3.057,0,0,1,2.478-3.536l7.928-1.4a10.283,10.283,0,0,1,5.038.286,8.508,8.508,0,0,1,3.9,2.586,9.069,9.069,0,0,1,2.031,4.422,8.185,8.185,0,0,1-2.755,7.819l3.016,3.779a3.449,3.449,0,1,1-5.411,4.278Zm-3.528-5.446,3.176-.56a3.227,3.227,0,0,0,2.122-1.154,2.882,2.882,0,0,0-.7-3.97,3.224,3.224,0,0,0-2.391-.36l-3.176.56Z" transform="translate(1106.367 5716.106)" fill="#fff"/>
    <path id="Path_564" data-name="Path 564" d="M23.706,36.806h0a3.243,3.243,0,0,1-2.63,3.758L11.252,42.3a3.049,3.049,0,0,1-3.536-2.478L4.409,21.081a3.573,3.573,0,0,1,7.038-1.241L14.155,35.2l5.793-1.02a3.24,3.24,0,0,1,3.758,2.63" transform="translate(1054.115 5726.406)" fill="#fff"/>
    <path id="Path_565" data-name="Path 565" d="M28.65,37.433h0a3.057,3.057,0,0,1-2.482,3.545l-10.436,1.84A3.049,3.049,0,0,1,12.2,40.341L8.8,21.092a3.052,3.052,0,0,1,2.478-3.536l10.149-1.792a3.06,3.06,0,0,1,1.063,6.027l-6.227,1.1.655,3.719,5.45-.959a2.895,2.895,0,1,1,1.007,5.7l-5.45.959.668,3.792,6.513-1.15a3.057,3.057,0,0,1,3.545,2.482" transform="translate(1069.305 5722.444)" fill="#fff"/>
    <path id="Path_566" data-name="Path 566" d="M46.452,13.18a3.422,3.422,0,0,0-5.333,3.406l1.736,9.863L31.737,16.182a3.41,3.41,0,0,0-2.959-.9l-.655.113a3.427,3.427,0,0,0-2.777,3.975l3.263,18.511a3.424,3.424,0,1,0,6.743-1.189l-1.736-9.867L44.733,37.093a3.423,3.423,0,0,0,2.959.9l.655-.113a3.427,3.427,0,0,0,2.777-3.975L47.862,15.4a3.422,3.422,0,0,0-1.41-2.217" transform="translate(1125.823 5711.712)" fill="#fff"/>
  </g>
</svg>
